# AST/ASF file generated using VICON BodyLanguage
# -----------------------------------------------
:version 1.10
:name VICON
:units
  mass 1.0
  length 0.45
  angle deg
:documentation
   .ast/.asf automatically generated from VICON data using
   VICON BodyBuilder and BodyLanguage model FoxedUp or BRILLIANT.MOD
:root
   order TX TY TZ RX RY RZ
   axis XYZ
   position 0 0 0  
   orientation 0 0 0 
:bonedata
  begin
     id 1 
     name lhipjoint
     direction 0.661853 -0.702389 0.261917 
     length 2.64193 
     axis 0 0 0  XYZ
  end
  begin
     id 2 
     name lfemur
     direction 0.34202 -0.939693 0  
     length 7.01722  
     axis 0 0 20  XYZ
    dof rx ry rz
    limits (-160.0 20.0)
           (-70.0 70.0)
           (-60.0 70.0)
  end
  begin
     id 3 
     name ltibia
     direction 0.34202 -0.939693 0   
     length 8.25008   
     axis 0 0 20   XYZ
    dof rx
    limits (-10.0 170.0)
  end
  begin
     id 4 
     name lfoot
     direction 0.0709916 -0.195048 0.978221   
     length 2.31941   
     axis -90 7.62852e-016 20   XYZ
    dof rx rz
    limits (-45.0 90.0)
           (-70.0 20.0)
  end
  begin
     id 5 
     name ltoes
     direction 1.53586e-011 -4.22017e-011 1   
     length 1.16486   
     axis -90 7.62852e-016 20   XYZ
    dof rx
    limits (-90.0 20.0)
  end
  begin
     id 6 
     name rhipjoint
     direction -0.638185 -0.721362 0.268992   
     length 2.57244  
     axis 0 0 0  XYZ 
  end
  begin
     id 7 
     name rfemur
     direction -0.34202 -0.939693 0   
     length 7.07017   
     axis 0 0 -20   XYZ
    dof rx ry rz
    limits (-160.0 20.0)
           (-70.0 70.0)
           (-70.0 60.0)
  end
  begin
     id 8 
     name rtibia
     direction -0.34202 -0.939693 0   
     length 8.20386   
     axis 0 0 -20   XYZ
    dof rx
    limits (-10.0 170.0)
 end
 begin
     id 9 
     name rfoot
     direction -0.0822429 -0.225961 0.970658   
     length 2.32215  
     axis -90 -7.62852e-016 -20   XYZ
    dof rx rz
    limits (-45.0 90.0)
           (-20.0 70.0)
  end
  begin
     id 10 
     name rtoes
     direction -1.53597e-011 -4.21689e-011 1   
     length 1.16333   
     axis -90 -7.62852e-016 -20   XYZ
    dof rx
    limits (-90.0 20.0)
  end
  begin
     id 11 
     name lowerback
     direction -0.0131557 0.998589 -0.0514484   
     length 2.14993   
     axis 0 0 0   XYZ
    dof rx ry rz
    limits (-20.0 45.0)
           (-30.0 30.0)
           (-30.0 30.0)
  end
  begin
     id 12 
     name upperback
     direction -0.000776481 0.999993 0.00352685   
     length 2.15301   
     axis 0 0 0   XYZ
    dof rx ry rz
    limits (-20.0 45.0)
           (-30.0 30.0)
           (-30.0 30.0)
  end
  begin
     id 13 
     name thorax
     direction 0.00438186 0.999609 0.0276143   
     length 2.15424   
     axis 0 0 0   XYZ
    dof rx ry rz
    limits (-20.0 45.0)
           (-30.0 30.0)
           (-30.0 30.0)
  end
  begin
     id 14 
     name lowerneck
     direction -0.0488006 0.998094 0.0377807   
     length 1.90481   
     axis 0 0 0   XYZ
    dof rx ry rz
    limits (-20.0 45.0)
           (-30.0 30.0)
           (-30.0 30.0)
  end
  begin
     id 15 
     name upperneck
     direction 0.0443769 0.990702 -0.12861   
     length 1.91305   
     axis 0 0 0   XYZ
    dof rx ry rz
    limits (-20.0 45.0)
           (-30.0 30.0)
           (-30.0 30.0)
  end
  begin
     id 16
     name head
     direction 0.0165599 0.998647 -0.0492982  
     length 1.92369  
     axis 0 0 0   XYZ
    dof rx ry rz
    limits (-20.0 45.0)
           (-30.0 30.0)
           (-30.0 30.0)
  end
  begin
     id 17 
     name lclavicle
     direction 0.911936 0.410197 -0.0105506  
     length 3.52622  
     axis 0 0 0   XYZ
    dof ry rz
    limits (-20.0 10.0)
           (0.0 20.0)
  end
  begin
     id 18 
     name lhumerus
     direction 1 -4.48974e-011 -2.48591e-028   
     length 5.47651   
     axis 180 -30 -90   XYZ
    dof rx ry rz
    limits (-60.0 90.0)
           (-90.0 90.0)
           (-90.0 90.0)
  end
  begin
     id 19
     name lradius
     direction 1 -4.48938e-011 -4.40099e-027   
     length 3.09058   
     axis 180 -30 -90   XYZ
    dof rx
    limits (-10.0 170.0)
  end
  begin
     id 20
     name lwrist
     direction 1 -4.49042e-011 -2.99852e-027   
     length 1.54529   
     axis 1.95339e-015 90 90   XYZ
    dof ry
    limits (-180.0 0.0)
 end
  begin
     id 21 
     name lhand
     direction 1 -4.48815e-011 -5.98193e-027   
     length 0.771611   
     axis 3.82337e-015 90 90   XYZ
    dof rx rz
    limits (-90.0 90.0)
           (-45.0 45.0)
  end
  begin
     id 22 
     name lfingers
     direction 1 -4.49034e-011 -1.1993e-026   
     length 0.622093   
     axis 7.64668e-015 90 90   XYZ
    dof rx
    limits (0.0 90.0)
  end
  begin
     id 23
     name lthumb
     direction 0.707107 -6.34867e-011 0.707107   
     length 0.893204   
     axis -90 45 -1.62303e-014   XYZ
    dof rx rz
    limits (-45.0 45.0)
           (-45.0 45.0)
  end
  begin
     id 24 
     name rclavicle
     direction -0.93442 0.355634 -0.0195692   
     length 3.62463  
     axis 0 0 0   XYZ 
    dof ry rz
    limits (-10.0 20.0)
           (-20.0 0.0)
  end
  begin
     id 25 
     name rhumerus
     direction -1 -4.48957e-011 -1.19147e-027  
     length 5.14182   
     axis 180 30 90   XYZ
    dof rx ry rz
    limits (-90.0 60.0)
           (-90.0 90.0)
           (-90.0 90.0)
  end
  begin
     id 26 
     name rradius
     direction -1 -4.48952e-011 -3.81062e-027   
     length 3.35565   
     axis 180 30 90   XYZ
    dof rx
    limits (-10.0 170.0)
  end
  begin
     id 27 
     name rwrist
     direction -1 -4.48973e-011 -2.99621e-027   
     length 1.67782   
     axis 1.95339e-015 -90 -90   XYZ
    dof ry
    limits (-180.0 0.0)
  end
  begin
     id 28
     name rhand
     direction -1 -4.48895e-011 -5.98727e-027   
     length 0.801042   
     axis 3.82337e-015 -90 -90   XYZ
    dof rx rz
    limits (-90.0 90.0)
           (-45.0 45.0)
  end
  begin
     id 29
     name rfingers
     direction -1 -4.49065e-011 -1.19972e-026   
     length 0.645821   
     axis 7.64668e-015 -90 -90   XYZ
    dof rx
    limits (0.0 90.0)
  end
  begin
     id 30
     name rthumb
     direction -0.707107 -6.34957e-011 0.707107   
     length 0.927273   
     axis -90 -45 1.62303e-014   XYZ
    dof rx rz
    limits (-45.0 45.0)
           (-45.0 45.0)
  end
:hierarchy
  begin
    root lhipjoint rhipjoint lowerback
    lhipjoint lfemur
    lfemur ltibia
    ltibia lfoot
    lfoot ltoes
    rhipjoint rfemur
    rfemur rtibia
    rtibia rfoot
    rfoot rtoes
    lowerback upperback
    upperback thorax
    thorax lowerneck lclavicle rclavicle
    lowerneck upperneck
    upperneck head
    lclavicle lhumerus
    lhumerus lradius
    lradius lwrist
    lwrist lhand lthumb
    lhand lfingers
    rclavicle rhumerus
    rhumerus rradius
    rradius rwrist
    rwrist rhand rthumb
    rhand rfingers
  end

#!OML:ASF E:\Style4\Style4.ASF
:FULLY-SPECIFIED
:DEGREES
1
root -0.733211 18.125 -0.658448 0.0858585 -10.1623 3.4329
lowerback 5.64514 0.729679 -0.622115
upperback 5.31448 0.926898 0.505606
thorax 2.29097 0.429101 0.835439
lowerneck -3.82931 -4.91028 -4.99559
upperneck 6.66339 -6.20181 -0.555544
head 2.94823 -3.22414 0.442206
rclavicle 1.98785e-016 -7.15625e-015
rhumerus -59.4954 8.3831 -89.993
rradius 76.4819
rwrist -89.2601
rhand -38.1407 10.2421
rfingers 7.12502
rthumb -11.175 -19.4403
lclavicle 1.98785e-016 -7.15625e-015
lhumerus -59.7639 -32.136 100.727
lradius 78.4534
lwrist 74.7157
lhand -20.1246 45.881
lfingers 7.12502
lthumb 6.21957 75.7697
rfemur -8.96675 5.18942 18.1059
rtibia 22.507
rfoot -13.18 -14.3609
rtoes -12.0184
lfemur 1.76109 0.17169 -19.7356
ltibia 8.24921
lfoot -12.8508 21.2352
ltoes -12.4752
2
root -0.74487 18.1251 -0.664761 0.088283 -10.1795 3.43514
lowerback 5.65186 0.716765 -0.688544
upperback 5.34106 0.906729 0.537363
thorax 2.31381 0.416084 0.906188
lowerneck -3.661 -4.80328 -5.02682
upperneck 6.58787 -6.06826 -0.546749
head 2.88917 -3.15705 0.461411
rclavicle 1.31198e-014 1.59028e-015
rhumerus -58.9298 7.65088 -88.9542
rradius 76.7142
rwrist -89.0739
rhand -38.5961 11.8168
rfingers 7.12502
rthumb -11.6142 -17.8413
lclavicle 1.31198e-014 1.59028e-015
lhumerus -59.077 -32.2397 100.292
lradius 78.9315
lwrist 74.6052
lhand -20.0087 45.2676
lfingers 7.12502
lthumb 6.33141 75.153
rfemur -8.99504 5.25484 18.1556
rtibia 22.5141
rfoot -13.1293 -14.4498
rtoes -12.1942
lfemur 1.72716 0.187995 -19.6913
ltibia 8.27778
lfoot -12.8805 21.2408
ltoes -12.3098
3
root -0.756677 18.1246 -0.673264 0.165108 -10.2226 3.34707
lowerback 5.62407 0.670683 -0.674087
upperback 5.35445 0.845252 0.583356
thorax 2.344 0.384636 0.948048
lowerneck -3.58654 -4.66891 -5.05891
upperneck 6.57148 -5.89129 -0.545766
head 2.86653 -3.0697 0.476587
rclavicle -1.09332e-014 -3.97569e-015
rhumerus -58.3345 7.07232 -87.9566
rradius 76.9778
rwrist -88.6805
rhand -38.7984 13.372
rfingers 7.12502
rthumb -11.8093 -16.275
lclavicle -1.09332e-014 -3.97569e-015
lhumerus -58.3023 -32.275 99.7634
lradius 79.4597
lwrist 74.4901
lhand -20.0221 44.8084
lfingers 7.12502
lthumb 6.31847 74.6942
rfemur -9.0905 5.30777 18.2937
rtibia 22.4903
rfoot -13.1212 -14.438
rtoes -12.1937
lfemur 1.51722 0.221452 -19.5395
ltibia 8.49643
lfoot -12.9622 21.2257
ltoes -12.3686
4
root -0.767926 18.1248 -0.683027 0.263872 -10.2589 3.25654
lowerback 5.60169 0.62673 -0.634729
upperback 5.35462 0.787752 0.610461
thorax 2.35796 0.356471 0.956156
lowerneck -3.62345 -4.54592 -5.01576
upperneck 6.62336 -5.72229 -0.610284
head 2.8828 -2.98775 0.453901
rclavicle -1.94809e-014 -5.56597e-015
rhumerus -57.6841 6.47945 -86.9805
rradius 77.4203
rwrist -88.2309
rhand -39.703 14.8274
rfingers 7.12502
rthumb -12.6815 -14.7675
lclavicle -1.94809e-014 -5.56597e-015
lhumerus -57.5362 -32.3891 99.2508
lradius 80.0327
lwrist 74.537
lhand -20.4639 44.6344
lfingers 7.12502
lthumb 5.89197 74.5325
rfemur -9.22078 5.33094 18.4279
rtibia 22.4832
rfoot -13.1004 -14.4218
rtoes -12.1517
lfemur 1.33931 0.258886 -19.3934
ltibia 8.60247
lfoot -12.9267 21.203
ltoes -12.4859
5
root -0.776515 18.1261 -0.691014 0.327462 -10.2161 3.22427
lowerback 5.60103 0.571025 -0.579134
upperback 5.33991 0.715947 0.59008
thorax 2.3454 0.3228 0.906429
lowerneck -3.66168 -4.4481 -4.97024
upperneck 6.76649 -5.58435 -0.691975
head 2.93069 -2.92324 0.422755
rclavicle 1.70955e-014 1.11319e-014
rhumerus -57.04 5.85289 -86.0086
rradius 77.9757
rwrist -88.1514
rhand -41.0079 15.8323
rfingers 7.12502
rthumb -13.9393 -13.6805
lclavicle 1.70955e-014 1.11319e-014
lhumerus -56.7992 -32.6659 98.7734
lradius 80.6366
lwrist 74.6354
lhand -20.8617 44.6881
lfingers 7.12502
lthumb 5.5079 74.5965
rfemur -9.29454 5.20305 18.4821
rtibia 22.4608
rfoot -13.0645 -14.3697
rtoes -12.4055
lfemur 1.16541 0.21689 -19.3332
ltibia 8.76144
lfoot -12.9519 21.1787
ltoes -12.6234
6
root -0.785963 18.1272 -0.699192 0.372435 -10.1501 3.22228
lowerback 5.60818 0.516224 -0.584669
upperback 5.33003 0.643239 0.568208
thorax 2.33278 0.286775 0.889428
lowerneck -3.60821 -4.35369 -4.92488
upperneck 6.82661 -5.46027 -0.734442
head 2.93499 -2.86285 0.406934
rclavicle -2.44505e-014 -3.97569e-015
rhumerus -56.4158 5.31864 -85.0132
rradius 78.4735
rwrist -88.1478
rhand -41.5909 16.625
rfingers 7.12502
rthumb -14.501 -12.8483
lclavicle -2.44505e-014 -3.97569e-015
lhumerus -56.0053 -33.0327 98.3385
lradius 81.1879
lwrist 74.6682
lhand -21.094 44.5741
lfingers 7.12502
lthumb 5.2836 74.4882
rfemur -9.34616 5.1238 18.5153
rtibia 22.4485
rfoot -13.0054 -14.3688
rtoes -12.2867
lfemur 1.03533 0.151555 -19.2971
ltibia 8.86089
lfoot -12.9697 21.1804
ltoes -12.6287
7
root -0.794363 18.1275 -0.709316 0.430941 -10.1488 3.13457
lowerback 5.60076 0.477804 -0.514776
upperback 5.35171 0.594445 0.56423
thorax 2.36105 0.264369 0.84807
lowerneck -3.51504 -4.24876 -4.8905
upperneck 6.79725 -5.32962 -0.711178
head 2.90396 -2.79575 0.416392
rclavicle 8.54774e-015 -1.59028e-015
rhumerus -55.7547 4.90923 -84.0415
rradius 79.0004
rwrist -88.0432
rhand -41.8584 17.6923
rfingers 7.12502
rthumb -14.7588 -11.7622
lclavicle 8.54774e-015 -1.59028e-015
lhumerus -55.1047 -33.4258 97.8942
lradius 81.6296
lwrist 74.7016
lhand -21.2198 44.1501
lfingers 7.12502
lthumb 5.16213 74.0672
rfemur -9.42374 5.17902 18.6492
rtibia 22.4451
rfoot -12.9645 -14.415
rtoes -12.1531
lfemur 0.970947 0.1516 -19.1588
ltibia 8.822
lfoot -12.9086 21.2142
ltoes -12.7122
8
root -0.800619 18.1278 -0.717149 0.459441 -10.1991 3.16307
lowerback 5.56046 0.468274 -0.554853
upperback 5.38948 0.580704 0.535756
thorax 2.42289 0.256297 0.842273
lowerneck -3.36607 -4.16816 -4.8899
upperneck 6.71198 -5.23584 -0.652675
head 2.84679 -2.74566 0.443179
rclavicle 4.17448e-015 -1.35174e-014
rhumerus -55.0778 4.5784 -83.0528
rradius 79.5541
rwrist -88.0518
rhand -42.3848 19.3265
rfingers 7.12502
rthumb -15.2659 -10.0901
lclavicle 4.17448e-015 -1.35174e-014
lhumerus -54.1596 -33.8391 97.4304
lradius 82.1739
lwrist 74.8454
lhand -21.6805 43.938
lfingers 7.12502
lthumb 4.71732 73.8655
rfemur -9.51305 5.1483 18.6368
rtibia 22.4587
rfoot -12.9829 -14.3512
rtoes -12.271
lfemur 0.973201 0.202213 -19.1701
ltibia 8.70507
lfoot -12.7721 21.2522
ltoes -12.7805
9
root -0.807219 18.1294 -0.721952 0.432087 -10.1998 3.24989
lowerback 5.5371 0.432995 -0.65122
upperback 5.43612 0.531096 0.491226
thorax 2.48493 0.228717 0.85256
lowerneck -3.23105 -4.08479 -4.8896
upperneck 6.64934 -5.13641 -0.604696
head 2.79953 -2.69355 0.466046
rclavicle -7.35503e-015 -1.35174e-014
rhumerus -54.4227 4.29932 -82.0714
rradius 80.1592
rwrist -88.0476
rhand -42.8075 20.363
rfingers 7.12502
rthumb -15.673 -9.02218
lclavicle -7.35503e-015 -1.35174e-014
lhumerus -53.1851 -34.252 96.9299
lradius 82.8195
lwrist 75.1035
lhand -22.4951 43.7626
lfingers 7.12502
lthumb 3.93069 73.706
rfemur -9.52362 5.08158 18.5573
rtibia 22.4561
rfoot -13.0121 -14.2668
rtoes -12.3129
lfemur 1.01396 0.20216 -19.2429
ltibia 8.63425
lfoot -12.6989 21.262
ltoes -12.5437
10
root -0.813792 18.13 -0.729351 0.413839 -10.1742 3.30819
lowerback 5.56923 0.390678 -0.711332
upperback 5.44911 0.473194 0.448509
thorax 2.48162 0.198555 0.844036
lowerneck -3.12452 -3.99959 -4.89722
upperneck 6.65325 -5.03117 -0.55991
head 2.78018 -2.64001 0.487902
rclavicle 3.37934e-014 1.74931e-014
rhumerus -53.7907 4.04532 -81.0962
rradius 80.7497
rwrist -87.8773
rhand -42.9912 20.6354
rfingers 7.12502
rthumb -15.8499 -8.73587
lclavicle 3.37934e-014 1.74931e-014
lhumerus -52.2005 -34.6603 96.4166
lradius 83.5369
lwrist 75.3456
lhand -23.1413 43.5661
lfingers 7.12502
lthumb 3.30668 73.5202
rfemur -9.52788 5.08771 18.5158
rtibia 22.4512
rfoot -13.0282 -14.2502
rtoes -11.9497
lfemur 1.0318 0.176152 -19.2772
ltibia 8.58043
lfoot -12.6981 21.2653
ltoes -12.4585
11
root -0.821233 18.1301 -0.740539 0.418317 -10.1439 3.27895
lowerback 5.63536 0.34896 -0.733633
upperback 5.45258 0.416573 0.440222
thorax 2.4495 0.169764 0.849508
lowerneck -3.04207 -3.92025 -4.86618
upperneck 6.65978 -4.93215 -0.551092
head 2.76385 -2.58981 0.490764
rclavicle -7.35503e-015 9.54166e-015
rhumerus -53.0714 3.89315 -80.1576
rradius 81.2971
rwrist -87.6279
rhand -43.3262 21.4039
rfingers 7.12502
rthumb -16.1725 -7.94146
lclavicle -7.35503e-015 9.54166e-015
lhumerus -51.1204 -35.1074 95.8505
lradius 84.253
lwrist 75.5939
lhand -23.3286 43.2236
lfingers 7.12502
lthumb 3.12576 73.1804
rfemur -9.52666 5.15401 18.5839
rtibia 22.4238
rfoot -12.9899 -14.354
rtoes -11.693
lfemur 0.999219 0.146219 -19.2127
ltibia 8.5809
lfoot -12.6842 21.2972
ltoes -12.6827
